<?xml version="1.0" encoding="UTF-8" standalone="no" ?>
<!DOCTYPE svg PUBLIC "-//W3C//DTD SVG 1.1//EN" "http://www.w3.org/Graphics/SVG/1.1/DTD/svg11.dtd">
<svg xmlns="http://www.w3.org/2000/svg" xmlns:xlink="http://www.w3.org/1999/xlink" version="1.1" width="300" height="574" viewBox="0 0 300 574" xml:space="preserve">
<desc>Created with Fabric.js 5.3.0</desc>
<defs>
</defs>
<g transform="matrix(0.592079333 0 0 0.5920793531 10.1603690366 148.938053349)" id="cnZ3ek7tVXjaK2IbGEiwC"  >
<path style="stroke: rgb(152,221,144); stroke-width: 0; stroke-dasharray: none; stroke-linecap: butt; stroke-dashoffset: 0; stroke-linejoin: miter; stroke-miterlimit: 4; fill: #2aef79; fill-rule: nonzero; opacity: 1;" vector-effect="non-scaling-stroke"  transform=" translate(0, 0)" d="M 0 -16.88963 C 9.32307 -16.88963 16.88963 -9.323080000000001 16.88963 0 C 16.88963 9.32307 9.323080000000001 16.88963 0 16.88963 C -9.32307 16.88963 -16.88963 9.323080000000001 -16.88963 0 C -16.88963 -9.32307 -9.323080000000001 -16.88963 0 -16.88963 z" stroke-linecap="round" />
</g>
<g transform="matrix(0.592079333 0 0 0.5920793531 148.8774509804 148.938053349)" id="w7B2Uh2DrCvbwj3tTOA_E"  >
<path style="stroke: rgb(152,221,144); stroke-width: 0; stroke-dasharray: none; stroke-linecap: butt; stroke-dashoffset: 0; stroke-linejoin: miter; stroke-miterlimit: 4; fill: #2aef79; fill-rule: nonzero; opacity: 1;" vector-effect="non-scaling-stroke"  transform=" translate(0, 0)" d="M 0 -16.88963 C 9.32307 -16.88963 16.88963 -9.323080000000001 16.88963 0 C 16.88963 9.32307 9.323080000000001 16.88963 0 16.88963 C -9.32307 16.88963 -16.88963 9.323080000000001 -16.88963 0 C -16.88963 -9.32307 -9.323080000000001 -16.88963 0 -16.88963 z" stroke-linecap="round" />
</g>
<g transform="matrix(0.592079333 0 0 0.5920793531 10.1603690366 10.1225490196)" id="nu_mzgmfrFMzQtYr9h8Q7"  >
<path style="stroke: rgb(152,221,144); stroke-width: 0; stroke-dasharray: none; stroke-linecap: butt; stroke-dashoffset: 0; stroke-linejoin: miter; stroke-miterlimit: 4; fill: #2aef79; fill-rule: nonzero; opacity: 1;" vector-effect="non-scaling-stroke"  transform=" translate(0, 0)" d="M 0 -16.88963 C 9.32307 -16.88963 16.88963 -9.323080000000001 16.88963 0 C 16.88963 9.32307 9.323080000000001 16.88963 0 16.88963 C -9.32307 16.88963 -16.88963 9.323080000000001 -16.88963 0 C -16.88963 -9.32307 -9.323080000000001 -16.88963 0 -16.88963 z" stroke-linecap="round" />
</g>
<g transform="matrix(0.592079333 0 0 0.5920793531 148.8774509804 10.1225490196)" id="0j5fwsYfd5u5TcJSuj6jR"  >
<path style="stroke: rgb(152,221,144); stroke-width: 0; stroke-dasharray: none; stroke-linecap: butt; stroke-dashoffset: 0; stroke-linejoin: miter; stroke-miterlimit: 4; fill: #2aef79; fill-rule: nonzero; opacity: 1;" vector-effect="non-scaling-stroke"  transform=" translate(0, 0)" d="M 0 -16.88963 C 9.32307 -16.88963 16.88963 -9.323080000000001 16.88963 0 C 16.88963 9.32307 9.323080000000001 16.88963 0 16.88963 C -9.32307 16.88963 -16.88963 9.323080000000001 -16.88963 0 C -16.88963 -9.32307 -9.323080000000001 -16.88963 0 -16.88963 z" stroke-linecap="round" />
</g>
<g transform="matrix(0.592079333 0 0 0.5920793531 289.8168489518 148.9380533484)" id="rv2njJeNN_y1gN3goHIkU"  >
<path style="stroke: rgb(152,221,144); stroke-width: 0; stroke-dasharray: none; stroke-linecap: butt; stroke-dashoffset: 0; stroke-linejoin: miter; stroke-miterlimit: 4; fill: #2aef79; fill-rule: nonzero; opacity: 1;" vector-effect="non-scaling-stroke"  transform=" translate(0, 0)" d="M 0 -16.88963 C 9.32307 -16.88963 16.88963 -9.323080000000001 16.88963 0 C 16.88963 9.32307 9.323080000000001 16.88963 0 16.88963 C -9.32307 16.88963 -16.88963 9.323080000000001 -16.88963 0 C -16.88963 -9.32307 -9.323080000000001 -16.88963 0 -16.88963 z" stroke-linecap="round" />
</g>
<g transform="matrix(0.592079333 0 0 0.5920793531 10.00794875 287.5405350245)" id="7Pr1803L0zTogeszNbl9W"  >
<path style="stroke: rgb(152,221,144); stroke-width: 0; stroke-dasharray: none; stroke-linecap: butt; stroke-dashoffset: 0; stroke-linejoin: miter; stroke-miterlimit: 4; fill: #2aef79; fill-rule: nonzero; opacity: 1;" vector-effect="non-scaling-stroke"  transform=" translate(0, 0)" d="M 0 -16.88963 C 9.32307 -16.88963 16.88963 -9.323080000000001 16.88963 0 C 16.88963 9.32307 9.323080000000001 16.88963 0 16.88963 C -9.32307 16.88963 -16.88963 9.323080000000001 -16.88963 0 C -16.88963 -9.32307 -9.323080000000001 -16.88963 0 -16.88963 z" stroke-linecap="round" />
</g>
<g transform="matrix(0.592079333 0 0 0.5920793531 148.7250306938 287.5405350245)" id="21_eOvK67gTLZ1deQLIK3"  >
<path style="stroke: rgb(152,221,144); stroke-width: 0; stroke-dasharray: none; stroke-linecap: butt; stroke-dashoffset: 0; stroke-linejoin: miter; stroke-miterlimit: 4; fill: #2aef79; fill-rule: nonzero; opacity: 1;" vector-effect="non-scaling-stroke"  transform=" translate(0, 0)" d="M 0 -16.88963 C 9.32307 -16.88963 16.88963 -9.323080000000001 16.88963 0 C 16.88963 9.32307 9.323080000000001 16.88963 0 16.88963 C -9.32307 16.88963 -16.88963 9.323080000000001 -16.88963 0 C -16.88963 -9.32307 -9.323080000000001 -16.88963 0 -16.88963 z" stroke-linecap="round" />
</g>
<g transform="matrix(0.592079333 0 0 0.5920793531 289.6644286652 287.5405350239)" id="A7GxYlXezbCEops1AFhrn"  >
<path style="stroke: rgb(152,221,144); stroke-width: 0; stroke-dasharray: none; stroke-linecap: butt; stroke-dashoffset: 0; stroke-linejoin: miter; stroke-miterlimit: 4; fill: #2aef79; fill-rule: nonzero; opacity: 1;" vector-effect="non-scaling-stroke"  transform=" translate(0, 0)" d="M 0 -16.88963 C 9.32307 -16.88963 16.88963 -9.323080000000001 16.88963 0 C 16.88963 9.32307 9.323080000000001 16.88963 0 16.88963 C -9.32307 16.88963 -16.88963 9.323080000000001 -16.88963 0 C -16.88963 -9.32307 -9.323080000000001 -16.88963 0 -16.88963 z" stroke-linecap="round" />
</g>
<g transform="matrix(0.592079333 0 0 0.5920793531 9.8555284633 426.1430166987)" id="eZ2aQK4bP0OSEkkMp-Ze4"  >
<path style="stroke: rgb(152,221,144); stroke-width: 0; stroke-dasharray: none; stroke-linecap: butt; stroke-dashoffset: 0; stroke-linejoin: miter; stroke-miterlimit: 4; fill: #2aef79; fill-rule: nonzero; opacity: 1;" vector-effect="non-scaling-stroke"  transform=" translate(0, 0)" d="M 0 -16.88963 C 9.32307 -16.88963 16.88963 -9.323080000000001 16.88963 0 C 16.88963 9.32307 9.323080000000001 16.88963 0 16.88963 C -9.32307 16.88963 -16.88963 9.323080000000001 -16.88963 0 C -16.88963 -9.32307 -9.323080000000001 -16.88963 0 -16.88963 z" stroke-linecap="round" />
</g>
<g transform="matrix(0.592079333 0 0 0.5920793531 148.5726104071 426.1430166987)" id="R2rl7xV_4Nmo261roLSZR"  >
<path style="stroke: rgb(152,221,144); stroke-width: 0; stroke-dasharray: none; stroke-linecap: butt; stroke-dashoffset: 0; stroke-linejoin: miter; stroke-miterlimit: 4; fill: #2aef79; fill-rule: nonzero; opacity: 1;" vector-effect="non-scaling-stroke"  transform=" translate(0, 0)" d="M 0 -16.88963 C 9.32307 -16.88963 16.88963 -9.323080000000001 16.88963 0 C 16.88963 9.32307 9.323080000000001 16.88963 0 16.88963 C -9.32307 16.88963 -16.88963 9.323080000000001 -16.88963 0 C -16.88963 -9.32307 -9.323080000000001 -16.88963 0 -16.88963 z" stroke-linecap="round" />
</g>
<g transform="matrix(0.592079333 0 0 0.5920793531 289.5120083785 426.1430166981)" id="QFCTAgziJCmMHbPRjCUBz"  >
<path style="stroke: rgb(152,221,144); stroke-width: 0; stroke-dasharray: none; stroke-linecap: butt; stroke-dashoffset: 0; stroke-linejoin: miter; stroke-miterlimit: 4; fill: #2aef79; fill-rule: nonzero; opacity: 1;" vector-effect="non-scaling-stroke"  transform=" translate(0, 0)" d="M 0 -16.88963 C 9.32307 -16.88963 16.88963 -9.323080000000001 16.88963 0 C 16.88963 9.32307 9.323080000000001 16.88963 0 16.88963 C -9.32307 16.88963 -16.88963 9.323080000000001 -16.88963 0 C -16.88963 -9.32307 -9.323080000000001 -16.88963 0 -16.88963 z" stroke-linecap="round" />
</g>
<g transform="matrix(0.592079333 0 0 0.5920793531 9.8555284633 564.7454983729)" id="qtaHV8zwIr99TYf_G3ANQ"  >
<path style="stroke: rgb(152,221,144); stroke-width: 0; stroke-dasharray: none; stroke-linecap: butt; stroke-dashoffset: 0; stroke-linejoin: miter; stroke-miterlimit: 4; fill: #2aef79; fill-rule: nonzero; opacity: 1;" vector-effect="non-scaling-stroke"  transform=" translate(0, 0)" d="M 0 -16.88963 C 9.32307 -16.88963 16.88963 -9.323080000000001 16.88963 0 C 16.88963 9.32307 9.323080000000001 16.88963 0 16.88963 C -9.32307 16.88963 -16.88963 9.323080000000001 -16.88963 0 C -16.88963 -9.32307 -9.323080000000001 -16.88963 0 -16.88963 z" stroke-linecap="round" />
</g>
<g transform="matrix(0.592079333 0 0 0.5920793531 148.5726104071 564.7454983729)" id="Km_t9hOe1lcCwT-lAQT05"  >
<path style="stroke: rgb(152,221,144); stroke-width: 0; stroke-dasharray: none; stroke-linecap: butt; stroke-dashoffset: 0; stroke-linejoin: miter; stroke-miterlimit: 4; fill: #2aef79; fill-rule: nonzero; opacity: 1;" vector-effect="non-scaling-stroke"  transform=" translate(0, 0)" d="M 0 -16.88963 C 9.32307 -16.88963 16.88963 -9.323080000000001 16.88963 0 C 16.88963 9.32307 9.323080000000001 16.88963 0 16.88963 C -9.32307 16.88963 -16.88963 9.323080000000001 -16.88963 0 C -16.88963 -9.32307 -9.323080000000001 -16.88963 0 -16.88963 z" stroke-linecap="round" />
</g>
<g transform="matrix(0.592079333 0 0 0.5920793531 289.5120083785 564.7454983723)" id="xNpwr2FLU2nJgiBpTveU6"  >
<path style="stroke: rgb(152,221,144); stroke-width: 0; stroke-dasharray: none; stroke-linecap: butt; stroke-dashoffset: 0; stroke-linejoin: miter; stroke-miterlimit: 4; fill: #2aef79; fill-rule: nonzero; opacity: 1;" vector-effect="non-scaling-stroke"  transform=" translate(0, 0)" d="M 0 -16.88963 C 9.32307 -16.88963 16.88963 -9.323080000000001 16.88963 0 C 16.88963 9.32307 9.323080000000001 16.88963 0 16.88963 C -9.32307 16.88963 -16.88963 9.323080000000001 -16.88963 0 C -16.88963 -9.32307 -9.323080000000001 -16.88963 0 -16.88963 z" stroke-linecap="round" />
</g>
<g transform="matrix(0.592079333 0 0 0.5920793531 289.8168489518 10.1225490202)" id="ilEhKXht9xMB6Y-8HhIvZ"  >
<path style="stroke: rgb(152,221,144); stroke-width: 0; stroke-dasharray: none; stroke-linecap: butt; stroke-dashoffset: 0; stroke-linejoin: miter; stroke-miterlimit: 4; fill: #2aef79; fill-rule: nonzero; opacity: 1;" vector-effect="non-scaling-stroke"  transform=" translate(0, 0)" d="M 0 -16.88963 C 9.32307 -16.88963 16.88963 -9.323080000000001 16.88963 0 C 16.88963 9.32307 9.323080000000001 16.88963 0 16.88963 C -9.32307 16.88963 -16.88963 9.323080000000001 -16.88963 0 C -16.88963 -9.32307 -9.323080000000001 -16.88963 0 -16.88963 z" stroke-linecap="round" />
</g>
</svg>