<?xml version="1.0" encoding="UTF-8" standalone="no" ?>
<!DOCTYPE svg PUBLIC "-//W3C//DTD SVG 1.1//EN" "http://www.w3.org/Graphics/SVG/1.1/DTD/svg11.dtd">
<svg xmlns="http://www.w3.org/2000/svg" xmlns:xlink="http://www.w3.org/1999/xlink" version="1.1" width="159" height="159" viewBox="0 0 159 159" xml:space="preserve">
<desc>Created with Fabric.js 5.3.0</desc>
<defs>
</defs>
<g transform="matrix(0.592079333 0 0 0.5920793531 10.1603690366 148.8774509804)" id="cnZ3ek7tVXjaK2IbGEiwC"  >
<path style="stroke: #2aef79; stroke-width: 0; stroke-dasharray: none; stroke-linecap: butt; stroke-dashoffset: 0; stroke-linejoin: miter; stroke-miterlimit: 4; fill: #2aef79; fill-rule: nonzero; opacity: 1;" vector-effect="non-scaling-stroke"  transform=" translate(0, 0)" d="M 0 -16.88963 C 9.32307 -16.88963 16.88963 -9.323080000000001 16.88963 0 C 16.88963 9.32307 9.323080000000001 16.88963 0 16.88963 C -9.32307 16.88963 -16.88963 9.323080000000001 -16.88963 0 C -16.88963 -9.32307 -9.323080000000001 -16.88963 0 -16.88963 z" stroke-linecap="round" />
</g>
<g transform="matrix(0.592079333 0 0 0.5920793531 148.8774509804 148.8774509804)" id="w7B2Uh2DrCvbwj3tTOA_E"  >
<path style="stroke: #2aef79; stroke-width: 0; stroke-dasharray: none; stroke-linecap: butt; stroke-dashoffset: 0; stroke-linejoin: miter; stroke-miterlimit: 4; fill: #2aef79; fill-rule: nonzero; opacity: 1;" vector-effect="non-scaling-stroke"  transform=" translate(0, 0)" d="M 0 -16.88963 C 9.32307 -16.88963 16.88963 -9.323080000000001 16.88963 0 C 16.88963 9.32307 9.323080000000001 16.88963 0 16.88963 C -9.32307 16.88963 -16.88963 9.323080000000001 -16.88963 0 C -16.88963 -9.32307 -9.323080000000001 -16.88963 0 -16.88963 z" stroke-linecap="round" />
</g>
<g transform="matrix(0.592079333 0 0 0.5920793531 10.1603690366 10.1225490196)" id="nu_mzgmfrFMzQtYr9h8Q7"  >
<path style="stroke: #2aef79; stroke-width: 0; stroke-dasharray: none; stroke-linecap: butt; stroke-dashoffset: 0; stroke-linejoin: miter; stroke-miterlimit: 4; fill: #2aef79; fill-rule: nonzero; opacity: 1;" vector-effect="non-scaling-stroke"  transform=" translate(0, 0)" d="M 0 -16.88963 C 9.32307 -16.88963 16.88963 -9.323080000000001 16.88963 0 C 16.88963 9.32307 9.323080000000001 16.88963 0 16.88963 C -9.32307 16.88963 -16.88963 9.323080000000001 -16.88963 0 C -16.88963 -9.32307 -9.323080000000001 -16.88963 0 -16.88963 z" stroke-linecap="round" />
</g>
<g transform="matrix(0.592079333 0 0 0.5920793531 148.8774509804 10.1225490196)" id="0j5fwsYfd5u5TcJSuj6jR"  >
<path style="stroke: #2aef79; stroke-width: 0; stroke-dasharray: none; stroke-linecap: butt; stroke-dashoffset: 0; stroke-linejoin: miter; stroke-miterlimit: 4; fill: #2aef79; fill-rule: nonzero; opacity: 1;" vector-effect="non-scaling-stroke"  transform=" translate(0, 0)" d="M 0 -16.88963 C 9.32307 -16.88963 16.88963 -9.323080000000001 16.88963 0 C 16.88963 9.32307 9.323080000000001 16.88963 0 16.88963 C -9.32307 16.88963 -16.88963 9.323080000000001 -16.88963 0 C -16.88963 -9.32307 -9.323080000000001 -16.88963 0 -16.88963 z" stroke-linecap="round" />
</g>
</svg>