<?xml version="1.0" standalone="no"?>
<!DOCTYPE svg PUBLIC "-//W3C//DTD SVG 20010904//EN"
 "http://www.w3.org/TR/2001/REC-SVG-20010904/DTD/svg10.dtd">
<svg version="1.0" xmlns="http://www.w3.org/2000/svg"
 width="500.000000pt" height="500.000000pt" viewBox="0 0 500.000000 500.000000"
 preserveAspectRatio="xMidYMid meet">

<g transform="translate(0.000000,500.000000) scale(0.100000,-0.100000)"
fill="#2aef79" stroke="none">
<path d="M2485 4963 c-34 -185 -319 -1580 -324 -1584 -3 -4 -132 74 -286 172
-154 99 -471 302 -704 452 -234 150 -428 274 -433 275 -4 2 -8 -1 -8 -7 0 -5
205 -318 455 -696 250 -377 455 -689 455 -694 0 -4 -150 -41 -332 -81 -1062
-233 -1302 -287 -1305 -297 -2 -6 13 -14 34 -17 160 -29 1579 -320 1585 -325
3 -3 -198 -325 -448 -715 -250 -390 -454 -710 -454 -712 0 -14 93 45 705 451
377 250 690 455 694 455 4 0 45 -168 90 -372 45 -205 125 -573 179 -817 54
-245 103 -446 109 -448 6 -2 14 13 17 34 32 171 320 1579 325 1585 5 5 357
-218 1236 -782 201 -129 195 -126 195 -111 0 5 -205 319 -455 696 -250 378
-455 690 -455 694 0 4 44 17 98 29 53 12 198 43 322 71 937 206 1191 261 1204
261 9 0 16 6 16 13 0 10 -41 22 -132 40 -518 102 -1484 300 -1489 306 -6 5
161 271 704 1115 105 165 194 303 195 308 2 4 -1 8 -7 8 -5 0 -319 -205 -696
-455 -377 -250 -690 -455 -694 -455 -5 0 -18 44 -29 98 -12 53 -44 198 -71
322 -27 124 -97 442 -155 707 -58 265 -106 489 -106 497 0 33 -28 15 -35 -21z"/>
</g>
</svg>
